<?xml version="1.0" encoding="utf-8"?>
<!-- Generator: Adobe Illustrator 15.1.0, SVG Export Plug-In . SVG Version: 6.00 Build 0)  -->
<!DOCTYPE svg PUBLIC "-//W3C//DTD SVG 1.1//EN" "http://www.w3.org/Graphics/SVG/1.1/DTD/svg11.dtd">
<svg version="1.1" id="Spiral" xmlns="http://www.w3.org/2000/svg" xmlns:xlink="http://www.w3.org/1999/xlink" x="0px" y="0px"
	 width="578.527px" height="582.286px" viewBox="0 0 578.527 582.286" enable-background="new 0 0 578.527 582.286"
	 xml:space="preserve">
<g id="viewport">
	<g id="years">
		<g id="_x32_001">
			<text transform="matrix(1 0 0 1 318.3486 422.2378)" fill="#636342" font-family="'Fanwood-Italic'" font-size="0.25">2001</text>
			
				<rect id="_x32_001_1_" x="316.661" y="420.056" opacity="0.48" fill="#E4E3D3" stroke="#000000" stroke-width="0.25" enable-background="new    " width="2.49" height="2.494"/>
		</g>
		<g id="_x32_002_1_">
			<text transform="matrix(1 0 0 1 318.3486 422.9146)" fill="#636342" font-family="'Fanwood-Italic'" font-size="0.25">2002</text>
			
				<rect id="_x32_002" x="316.661" y="422.55" opacity="0.48" fill="#E4E3D3" stroke="#000000" stroke-width="0.25" enable-background="new    " width="2.49" height="2.492"/>
		</g>
		<g id="_x32_003_1_">
			<text transform="matrix(1 0 0 1 319.5576 420.5737)" fill="#636342" font-family="'Fanwood-Italic'" font-size="0.5">2003</text>
			
				<rect id="_x32_003" x="319.153" y="420.056" opacity="0.48" fill="#E4E3D3" stroke="#000000" stroke-width="0.25" enable-background="new    " width="4.986" height="4.986"/>
		</g>
		<g id="_x32_004">
			<rect x="316.661" y="416.318" opacity="0.48" fill="#D8C2BF" enable-background="new    " width="7.479" height="3.738"/>
			<rect x="316.661" y="412.579" opacity="0.48" fill="#E4E3D3" enable-background="new    " width="7.479" height="3.738"/>
			<text transform="matrix(1 0 0 1 316.9736 419.2271)" fill="#636342" font-family="'Fanwood-Italic'" font-size="0.75">2004</text>
		</g>
		<g id="_x32_005_1_">
			<text transform="matrix(1 0 0 1 313.5791 424.4185)" fill="#636342" font-family="'Fanwood-Italic'" font-size="1.25">2005</text>
			
				<rect id="_x32_005" x="304.196" y="412.579" opacity="0.48" fill="#E4E3D3" stroke="#000000" stroke-width="0.25" enable-background="new    " width="12.465" height="12.467"/>
		</g>
		<g id="_x32_006_1_">
			<text transform="matrix(1 0 0 1 319.1514 427.2817)" fill="#636342" font-family="'Fanwood-Italic'" font-size="2">2006</text>
			
				<rect id="_x32_006" x="304.196" y="425.043" opacity="0.48" fill="#E4E3D3" stroke="#000000" stroke-width="0.25" enable-background="new    " width="19.943" height="19.939"/>
		</g>
		<g id="_x32_007_1_">
			<text transform="matrix(1 0 0 1 325.6201 415.6567)" fill="#636342" font-family="'Fanwood-Italic'" font-size="3.25">2007</text>
			
				<rect id="_x32_007" x="324.141" y="412.579" opacity="0.48" fill="#E4E3D3" stroke="#000000" stroke-width="0.25" enable-background="new    " width="32.405" height="32.406"/>
		</g>
		<g id="_x32_008_1_">
			<text transform="matrix(1 0 0 1 305.7588 410.5093)" fill="#636342" font-family="'Fanwood-Italic'" font-size="5.25">2008</text>
			
				<rect id="_x32_008" x="304.196" y="360.23" opacity="0.48" fill="#E4E3D3" stroke="#000000" stroke-width="0.25" enable-background="new    " width="52.352" height="52.35"/>
		</g>
		<g id="_x32_009">
			<rect x="219.44" y="360.23" opacity="0.48" fill="#E4E3D3" enable-background="new    " width="84.756" height="42.377"/>
			<rect x="219.44" y="402.607" opacity="0.48" fill="#EEEEB0" enable-background="new    " width="84.756" height="42.379"/>
			<text transform="matrix(1 0 0 1 283.5913 441.8843)" fill="#636342" font-family="'Fanwood-Italic'" font-size="8.5">2009</text>
		</g>
		<g id="_x32_010">
			<polyline opacity="0.48" fill="#EEEEB0" enable-background="new    " points="304.096,444.986 304.096,582.09 219.338,582.09 
				219.338,444.986 304.096,444.986 			"/>
			<polyline opacity="0.48" fill="#EFF2E8" enable-background="new    " points="304.196,444.986 356.546,444.986 356.546,582.09 
				304.196,582.09 304.196,444.986 			"/>
			<text transform="matrix(1 0 0 1 324.1396 456.5513)" fill="#636342" font-family="'Fanwood-Italic'" font-size="13.75">2010</text>
		</g>
		<g id="_x32_011_1_">
			<text transform="matrix(1 0 0 1 362.5908 381.4185)" fill="#636342" font-family="'Fanwood-Italic'" font-size="22.25">2011</text>
			
				<rect id="_x32_011" x="356.438" y="360.23" opacity="0.48" fill="#EFF2E8" stroke="#000000" stroke-width="0.25" enable-background="new    " width="221.861" height="221.859"/>
		</g>
		<g id="_x32_012_1_">
			<text transform="matrix(1 0 0 1 227.5913 352.2163)" fill="#636342" font-family="'Fanwood-Italic'" font-size="36">2012</text>
			
				<rect id="_x32_012" x="219.228" y="1.16" opacity="0.48" fill="#EFF2E8" stroke="#000000" stroke-width="0.25" enable-background="new    " width="359.071" height="359.07"/>
		</g>
		<g id="_x32_013_1_">
			<text transform="matrix(1 0 0 1 98.1021 560.5366)" fill="#636342" font-family="'Fanwood-Italic'" font-size="58.25">2013</text>
			<g id="_x32_013" opacity="0.48">
				<g>
					<g>
						<rect x="0.021" y="1.16" fill="#EFF2E8" width="219.206" height="580.93"/>
					</g>
				</g>
				<g>
					<g>
						<rect x="0.021" y="1.16" fill="none" stroke="#000000" stroke-width="0.25" width="219.206" height="580.93"/>
					</g>
				</g>
			</g>
		</g>
		
			<line opacity="0.48" fill="none" stroke="#000000" stroke-width="0.25" enable-background="new    " x1="304.196" y1="444.986" x2="219.44" y2="444.986"/>
	</g>
	<g id="Outer_Spiral">
		<path id="_x32_013s_1_" fill="none" stroke="#000000" stroke-width="0.5" d="M0.144,47.854
			C68.574,17.939,142.81,1.173,219.241,1.173"/>
		<path id="_x32_012s" fill="none" stroke="#000000" stroke-width="0.44" d="M578.311,360.243
			c0-190.405-168.49-359.07-359.071-359.07"/>
		<path id="_x32_011s" fill="none" stroke="#000000" stroke-width="0.4" d="M578.311,360.243
			c0,117.646-104.104,221.859-221.861,221.859"/>
		<path id="_x32_010s" fill="none" stroke="#000000" stroke-width="0.36" d="M219.454,444.999
			c0,72.703,64.283,137.104,136.998,137.104"/>
		<path id="_x32_009s" fill="none" stroke="#000000" stroke-width="0.32" d="M219.454,444.999c0-44.941,39.771-84.756,84.755-84.756
			"/>
		<path id="_x32_008s" fill="none" stroke="#000000" stroke-width="0.28" d="M356.56,412.59c0-27.758-24.563-52.348-52.351-52.348"
			/>
		<path id="_x32_007s" fill="none" stroke="#000000" stroke-width="0.24" d="M356.56,412.59c0,17.188-15.207,32.408-32.406,32.408"
			/>
		<path id="_x32_006s" fill="none" stroke="#000000" stroke-width="0.2" d="M304.209,425.056c0,10.572,9.356,19.939,19.942,19.939"
			/>
		<path id="_x32_005s" fill="none" stroke="#000000" stroke-width="0.16" d="M304.209,425.056c0-6.609,5.851-12.467,12.466-12.467"
			/>
		<path id="_x32_004s" fill="none" stroke="#000000" stroke-width="0.12" d="M324.152,420.07c0-3.965-3.51-7.479-7.479-7.479"/>
		<path id="_x32_003s" fill="none" stroke="#000000" stroke-width="0.08" d="M324.152,420.07c0,2.645-2.34,4.986-4.984,4.986"/>
		<path id="_x32_002s" fill="none" stroke="#000000" stroke-width="0.04" d="M316.675,422.564c0,1.321,1.17,2.492,2.489,2.492"/>
		<path id="_x32_001s" fill="none" stroke="#000000" stroke-width="0.04" d="M316.675,422.564c0-1.322,1.17-2.494,2.489-2.494"/>
	</g>
	<g id="Jobs">
		<g id="A.U.">
			<path fill="none" stroke="#647693" stroke-width="3.125" stroke-miterlimit="10" d="M316.685,414.166
				c-5.707,0-10.902,5.195-10.902,10.902"/>
			<path fill="none" stroke="#647693" stroke-width="1.875" stroke-miterlimit="10" d="M323.226,420.08
				c0-3.422-3.119-6.541-6.541-6.541"/>
			<path fill="none" stroke="#647693" stroke-width="1.25" stroke-miterlimit="10" d="M319.175,424.441
				c2.281,0,4.361-2.078,4.361-4.361"/>
			<path fill="none" stroke="#647693" stroke-width="0.625" stroke-miterlimit="10" d="M316.995,422.574
				c0,1.141,1.039,2.18,2.18,2.18"/>
			<path fill="none" stroke="#647693" stroke-width="0.625" stroke-miterlimit="10" d="M317.894,420.847
				c-0.533,0.41-0.896,1.053-0.896,1.729"/>
		</g>
		<g id="Sirius">
			<path fill="#AB5673" stroke="#AB5673" stroke-width="0.3125" stroke-miterlimit="10" d="M318.313,423.384
				c0.232,0.242,0.553,0.402,0.871,0.402"/>
			<path fill="none" stroke="#AB5673" stroke-width="0.625" stroke-miterlimit="10" d="M319.187,422.464
				c1.256,0,2.486-1.23,2.486-2.486"/>
			<path fill="none" stroke="#AB5673" stroke-width="0.9375" stroke-miterlimit="10" d="M318.288,416.677
				c-0.498-0.271-1.043-0.428-1.594-0.428"/>
			<path fill="none" stroke="#AB5673" stroke-width="1.5625" stroke-miterlimit="10" d="M316.696,418.822
				c-2.137,0-4.242,1.428-5.371,3.324"/>
		</g>
		<path id="OAS" fill="none" stroke="#7D704F" stroke-width="0.234" stroke-miterlimit="10" d="M319.364,416.039
			c-0.789-0.562-1.719-0.902-2.668-0.902"/>
		<g id="Bucks">
			<path fill="none" stroke="#AB5673" stroke-width="1.563" stroke-miterlimit="10" d="M311.207,422.633
				c-0.416,0.805-0.656,1.678-0.656,2.557"/>
			<path fill="none" stroke="#AB5673" stroke-width="2.5" stroke-miterlimit="10" d="M314.299,425.186
				c0,0.91,0.164,1.818,0.459,2.695"/>
		</g>
		<g id="modernTimes">
			<path fill="none" stroke="#AB5673" stroke-width="5" stroke-miterlimit="10" d="M307.798,430.708
				c2.525,6.633,9.199,11.77,16.375,11.77"/>
			<path fill="none" stroke="#AB5673" stroke-width="8.125" stroke-miterlimit="10" d="M324.173,440.917
				c14.834,0,28.344-13.51,28.344-28.348"/>
			<path fill="none" stroke="#AB5673" stroke-width="6.5625" stroke-miterlimit="10" d="M332.062,377.058
				c-7.893-6.348-17.67-10.271-27.832-10.271"/>
			<path fill="none" stroke="#AB5673" stroke-width="13.125" stroke-miterlimit="10" d="M350.017,412.572
				c0-13.801-7.236-26.893-17.955-35.514"/>
			<path fill="none" stroke="#AB5673" stroke-width="10.625" stroke-miterlimit="10" d="M304.229,370.849
				c-23.477,0-45.685,12.938-59.562,31.75"/>
		</g>
		<path id="TA" fill="none" stroke="#E7D19B" stroke-width="0.234" stroke-miterlimit="10" d="M319.79,415.929
			c-0.887-0.688-1.971-1.107-3.096-1.107"/>
		<g id="PP1">
			<path fill="none" stroke="#E7D19B" stroke-width="0.625" stroke-miterlimit="10" d="M318.927,436.738
				c1.633,0.791,3.418,1.24,5.246,1.24"/>
			<path fill="none" stroke="#E7D19B" stroke-width="1.0156" stroke-miterlimit="10" d="M324.173,433.605
				c11.008,0,21.031-10.023,21.031-21.033"/>
			<path fill="none" stroke="#E7D19B" stroke-width="1.64" stroke-miterlimit="10" d="M338.206,412.572
				c0-17.779-16.193-33.973-33.977-33.973"/>
			<path fill="none" stroke="#E7D19B" stroke-width="2.656" stroke-miterlimit="10" d="M304.229,389.974
				c-28.789,0-55.005,26.217-55.005,55.006"/>
			<path fill="none" stroke="#E7D19B" stroke-width="4.297" stroke-miterlimit="10" d="M267.6,444.98
				c0,14.553,4.137,28.699,11.244,41.271"/>
		</g>
		<g id="Innovations">
			<path fill="none" stroke="#E7D19B" stroke-width="1.64" stroke-miterlimit="10" d="M315.364,389.451
				c-3.48-1.881-7.299-2.979-11.135-2.979"/>
			<path fill="none" stroke="#E7D19B" stroke-width="2.656" stroke-miterlimit="10" d="M304.229,402.724
				c-21.324,0-42.255,20.93-42.255,42.256"/>
			<path fill="none" stroke="#E7D19B" stroke-width="4.297" stroke-miterlimit="10" d="M288.224,444.98
				c0,34.496,33.807,68.354,68.248,68.354"/>
			<path fill="none" stroke="#E7D19B" stroke-width="6.953" stroke-miterlimit="10" d="M356.47,470.833
				c55.822,0,110.611-54.787,110.611-110.609"/>
			<path fill="none" stroke="#E7D19B" stroke-width="11.25" stroke-miterlimit="10" d="M398.331,360.224
				c0-71.734-55.885-142.414-124.132-168.517"/>
		</g>
		<g id="model">
			<path fill="none" stroke="#875E54" stroke-width="1.0156" stroke-miterlimit="10" d="M327.843,428.207
				c6.729-1.906,12.486-8.719,12.486-15.637"/>
			<path fill="none" stroke="#875E54" stroke-miterlimit="10" d="M330.331,412.572c0-4.352-1.41-8.674-3.775-12.516"/>
		</g>
		<g id="lateral">
			<path fill="none" stroke="#875E54" stroke-width="10.625" stroke-miterlimit="10" d="M236.226,417.029
				c-3.919,8.77-6.127,18.252-6.127,27.951"/>
			<path fill="none" stroke="#875E54" stroke-width="17.1875" stroke-miterlimit="10" d="M236.662,444.98
				c0,44.385,28.561,85.967,67.464,106.512"/>
		</g>
		<path id="lpl" fill="none" stroke="#875E54" stroke-width="5" stroke-miterlimit="10" d="M321.608,389.367
			c-3.359-2.836-7.307-4.938-11.484-5.938"/>
		<g id="comet">
			<path fill="none" stroke="#AB5673" stroke-width="5" stroke-miterlimit="10" d="M310.247,383.455
				c-1.971-0.479-3.986-0.73-6.018-0.73"/>
			<path fill="none" stroke="#AB5673" stroke-width="8" stroke-miterlimit="10" d="M304.229,396.125
				c-7.979,0-15.82,2.396-22.807,6.475"/>
		</g>
		<path id="onthefly" fill="none" stroke="#AB5673" stroke-width="8" stroke-miterlimit="10" d="M291.972,384.091
			c-10.232,2.305-19.801,7.396-27.774,14.354"/>
		<g id="independent">
			<path fill="none" stroke="#E7D19B" stroke-width="17.1875" stroke-miterlimit="10" d="M320.976,558.779
				c11.402,3.951,23.396,6.117,35.604,6.117"/>
			<path fill="none" stroke="#E7D19B" stroke-width="27.8125" stroke-miterlimit="10" d="M356.581,554.302
				c101.574,0,194.08-92.504,194.08-194.078"/>
			<path fill="none" stroke="#E7D19B" stroke-width="45" stroke-miterlimit="10" d="M533.331,360.224
				c0-134.948-100.895-260.003-227.979-300.454"/>
		</g>
		<path id="bss" fill="none" stroke="#647693" stroke-width="90" stroke-miterlimit="10" d="M305.351,59.771
			c-27.708-8.82-56.664-13.617-86.088-13.617"/>
		<g id="garden">
			<path fill="none" stroke="#AB5673" stroke-width="17.188" stroke-miterlimit="10" d="M328.187,528.705
				c9.045,3.385,18.627,5.254,28.395,5.254"/>
			<path fill="none" stroke="#AB5673" stroke-width="27.813" stroke-miterlimit="10" d="M356.47,504.208
				c37.127,0,72.621-16.658,99.08-42.572"/>
		</g>
		<g id="icob">
			<path fill="none" stroke="#AB5673" stroke-width="55.625" stroke-miterlimit="10" d="M466.231,450.083
				c21.09-25.209,34.227-56.893,34.227-89.859"/>
			<path fill="none" stroke="#AB5673" stroke-width="90" stroke-miterlimit="10" d="M452.331,360.224
				c0-56.688-23.992-111.021-61.918-152.948"/>
		</g>
		<g id="devdesign">
			<path fill="none" stroke="#C18896" stroke-width="45" stroke-miterlimit="10" d="M373.183,191.547
				c-42.059-38.438-96.794-62.803-153.92-62.803"/>
			<path fill="none" stroke="#C18896" stroke-width="150" stroke-miterlimit="10" d="M219.262,76.155
				c-48.438,0-96.567,7.752-143.639,23.094"/>
		</g>
	</g>
</g>
</svg>
